<?xml version="1.0" encoding="UTF-8" standalone="no"?>
<!DOCTYPE svg PUBLIC "-//W3C//DTD SVG 1.1//EN" "http://www.w3.org/Graphics/SVG/1.1/DTD/svg11.dtd">
<svg width="100%" height="100%" viewBox="0 0 2048 2048" version="1.1" xmlns="http://www.w3.org/2000/svg" xmlns:xlink="http://www.w3.org/1999/xlink" xml:space="preserve" xmlns:serif="http://www.serif.com/" style="fill-rule:evenodd;clip-rule:evenodd;stroke-linejoin:round;stroke-miterlimit:2;">
    <g transform="matrix(0.6151,0,0,1.03642,595.018,-57.8722)">
        <rect x="1460.02" y="607.747" width="166.272" height="961.015"/>
    </g>
    <g transform="matrix(1,0,0,1,299.36,-14.5432)">
        <path d="M546.753,417.953C608.19,417.953 658.068,467.145 658.068,527.736C658.068,588.327 608.19,637.519 546.753,637.519C485.317,637.519 435.438,588.327 435.438,527.736C435.438,467.145 485.317,417.953 546.753,417.953ZM543.368,486.073C564.558,486.073 581.761,503.611 581.761,525.213C581.761,546.815 564.558,564.353 543.368,564.353C522.177,564.353 504.974,546.815 504.974,525.213C504.974,503.611 522.177,486.073 543.368,486.073Z"/>
    </g>
    <g transform="matrix(1,0,0,1,1001.98,-15.6071)">
        <path d="M546.753,417.953C608.19,417.953 658.068,467.145 658.068,527.736C658.068,588.327 608.19,637.519 546.753,637.519C485.317,637.519 435.438,588.327 435.438,527.736C435.438,467.145 485.317,417.953 546.753,417.953ZM543.368,486.073C564.558,486.073 581.761,503.611 581.761,525.213C581.761,546.815 564.558,564.353 543.368,564.353C522.177,564.353 504.974,546.815 504.974,525.213C504.974,503.611 522.177,486.073 543.368,486.073Z"/>
    </g>
    <g transform="matrix(1,0,0,1,38.0378,134.485)">
        <path d="M553.128,1391.75C614.565,1391.75 664.444,1440.94 664.444,1501.54C664.444,1562.13 614.565,1611.32 553.128,1611.32C491.692,1611.32 441.813,1562.13 441.813,1501.54C441.813,1440.94 491.692,1391.75 553.128,1391.75ZM554.562,1457.72C575.752,1457.72 592.956,1475.26 592.956,1496.86C592.956,1518.46 575.752,1536 554.562,1536C533.372,1536 516.168,1518.46 516.168,1496.86C516.168,1475.26 533.372,1457.72 554.562,1457.72Z"/>
    </g>
    <g transform="matrix(1,0,0,1,18.374,134.93)">
        <path d="M1525.16,1390.15C1586.6,1390.15 1636.48,1439.34 1636.48,1499.93C1636.48,1560.53 1586.6,1609.72 1525.16,1609.72C1463.73,1609.72 1413.85,1560.53 1413.85,1499.93C1413.85,1439.34 1463.73,1390.15 1525.16,1390.15ZM1523.8,1459.61C1544.99,1459.61 1562.19,1477.15 1562.19,1498.75C1562.19,1520.36 1544.99,1537.89 1523.8,1537.89C1502.61,1537.89 1485.4,1520.36 1485.4,1498.75C1485.4,1477.15 1502.61,1459.61 1523.8,1459.61Z"/>
    </g>
    <g transform="matrix(1.1277,0,0,1.0104,11.0159,-996.969)">
        <rect x="795.563" y="1440.67" width="494.874" height="111.295"/>
    </g>
    <g transform="matrix(1.59917,0,0,1.0104,-599.35,117.562)">
        <rect x="795.563" y="1440.67" width="494.874" height="111.295"/>
    </g>
</svg>
