<?xml version="1.0" encoding="UTF-8" standalone="no"?>
<!DOCTYPE svg PUBLIC "-//W3C//DTD SVG 1.1//EN" "http://www.w3.org/Graphics/SVG/1.1/DTD/svg11.dtd">
<svg width="100%" height="100%" viewBox="0 0 2048 2048" version="1.1" xmlns="http://www.w3.org/2000/svg" xmlns:xlink="http://www.w3.org/1999/xlink" xml:space="preserve" xmlns:serif="http://www.serif.com/" style="fill-rule:evenodd;clip-rule:evenodd;stroke-linecap:round;stroke-linejoin:round;stroke-miterlimit:1.5;">
    <g transform="matrix(1,0,0,1,92.7556,47.6523)">
        <path d="M546.753,417.953C608.19,417.953 658.068,467.145 658.068,527.736C658.068,588.327 608.19,637.519 546.753,637.519C485.317,637.519 435.438,588.327 435.438,527.736C435.438,467.145 485.317,417.953 546.753,417.953ZM543.368,486.073C564.558,486.073 581.761,503.611 581.761,525.213C581.761,546.815 564.558,564.353 543.368,564.353C522.177,564.353 504.974,546.815 504.974,525.213C504.974,503.611 522.177,486.073 543.368,486.073Z"/>
    </g>
    <g transform="matrix(1,0,0,1,86.9142,-165.398)">
        <path d="M553.128,1391.75C614.565,1391.75 664.444,1440.94 664.444,1501.54C664.444,1562.13 614.565,1611.32 553.128,1611.32C491.692,1611.32 441.813,1562.13 441.813,1501.54C441.813,1440.94 491.692,1391.75 553.128,1391.75ZM554.562,1457.72C575.752,1457.72 592.956,1475.26 592.956,1496.86C592.956,1518.46 575.752,1536 554.562,1536C533.372,1536 516.168,1518.46 516.168,1496.86C516.168,1475.26 533.372,1457.72 554.562,1457.72Z"/>
    </g>
    <path d="M676.219,499.417C676.219,499.417 823.58,333.479 1056.75,334.788C1337.63,336.364 1616.68,609.343 1611.43,940.803C1605.83,1294.1 1332.36,1554.43 1078.09,1557.38C841.04,1560.12 678.188,1400.75 678.188,1400.75L725,1316.92C725,1316.92 924.167,1457.61 1069.64,1456.19C1247.02,1454.46 1500.25,1304.25 1504.81,944.208C1509.59,567.514 1214.87,443.892 1052.82,440.612C869.971,436.912 721.594,587.167 721.594,587.167L676.219,499.417Z" style="stroke:black;stroke-width:1px;"/>
</svg>
