<?xml version="1.0" encoding="UTF-8" standalone="no"?>
<!DOCTYPE svg PUBLIC "-//W3C//DTD SVG 1.1//EN" "http://www.w3.org/Graphics/SVG/1.1/DTD/svg11.dtd">
<svg width="100%" height="100%" viewBox="0 0 2048 2048" version="1.1" xmlns="http://www.w3.org/2000/svg" xmlns:xlink="http://www.w3.org/1999/xlink" xml:space="preserve" xmlns:serif="http://www.serif.com/" style="fill-rule:evenodd;clip-rule:evenodd;stroke-linecap:round;stroke-linejoin:round;stroke-miterlimit:1.5;">
    <path d="M1441.72,571.875C1441.72,571.875 1543.01,673.032 1539.11,845.689C1536.55,959.222 1542.75,963.862 1541.47,1111.2C1539.76,1308.04 1325.47,1605.58 1156.65,1612.12C1074.96,1615.29 1023.48,1613.86 935.718,1612.83C752.987,1610.67 547.104,1325.74 538.599,1117.93C532.027,957.336 536.868,958.126 533.839,859.815C527.858,665.668 621.132,575.21 621.132,575.21L706.322,619.12C706.322,619.12 655.241,686.511 655.539,793.726C655.795,885.427 656.018,988.708 658.481,1115.38C661.976,1295.09 836.226,1487.06 936.44,1489.25C1034.14,1491.38 1066.05,1491.48 1155.16,1489.55C1259.58,1487.29 1409.88,1311.32 1416.93,1113.12C1421.32,989.854 1417.08,890.085 1416.07,795.533C1415.06,700.617 1348.91,616.5 1348.91,616.5L1441.72,571.875Z" style="stroke:black;stroke-width:1px;"/>
    <g transform="matrix(1.08171,0,0,1.0104,-100.266,-989.617)">
        <rect x="795.563" y="1440.67" width="494.874" height="111.295"/>
    </g>
    <g transform="matrix(1,0,0,1,151.448,-2.59772)">
        <path d="M546.753,417.953C608.19,417.953 658.068,467.145 658.068,527.736C658.068,588.327 608.19,637.519 546.753,637.519C485.317,637.519 435.438,588.327 435.438,527.736C435.438,467.145 485.317,417.953 546.753,417.953ZM543.368,486.073C564.558,486.073 581.761,503.611 581.761,525.213C581.761,546.815 564.558,564.353 543.368,564.353C522.177,564.353 504.974,546.815 504.974,525.213C504.974,503.611 522.177,486.073 543.368,486.073Z"/>
    </g>
    <g transform="matrix(1,0,0,1,823.164,1.74151)">
        <path d="M546.753,417.953C608.19,417.953 658.068,467.145 658.068,527.736C658.068,588.327 608.19,637.519 546.753,637.519C485.317,637.519 435.438,588.327 435.438,527.736C435.438,467.145 485.317,417.953 546.753,417.953ZM543.368,486.073C564.558,486.073 581.761,503.611 581.761,525.213C581.761,546.815 564.558,564.353 543.368,564.353C522.177,564.353 504.974,546.815 504.974,525.213C504.974,503.611 522.177,486.073 543.368,486.073Z"/>
    </g>
</svg>
