<?xml version="1.0" encoding="UTF-8" standalone="no"?>
<!DOCTYPE svg PUBLIC "-//W3C//DTD SVG 1.1//EN" "http://www.w3.org/Graphics/SVG/1.1/DTD/svg11.dtd">
<svg width="100%" height="100%" viewBox="0 0 2048 2048" version="1.1" xmlns="http://www.w3.org/2000/svg" xmlns:xlink="http://www.w3.org/1999/xlink" xml:space="preserve" xmlns:serif="http://www.serif.com/" style="fill-rule:evenodd;clip-rule:evenodd;stroke-linejoin:round;stroke-miterlimit:2;">
    <g transform="matrix(0.412204,-1.14508,0.407004,0.146513,599.372,1859.35)">
        <rect x="870.947" y="143.364" width="284.773" height="234.756"/>
    </g>
    <g transform="matrix(1.77693,-2.48644,0.351937,0.251512,-1074.25,3696.1)">
        <rect x="870.947" y="143.364" width="284.773" height="234.756"/>
    </g>
    <g transform="matrix(1.74755,1.24582,-0.251102,0.352229,-857.943,-613.922)">
        <rect x="870.947" y="143.364" width="284.773" height="234.756"/>
    </g>
    <path d="M546.753,417.953C608.19,417.953 658.068,467.145 658.068,527.736C658.068,588.327 608.19,637.519 546.753,637.519C485.317,637.519 435.438,588.327 435.438,527.736C435.438,467.145 485.317,417.953 546.753,417.953ZM543.368,486.073C564.558,486.073 581.761,503.611 581.761,525.213C581.761,546.815 564.558,564.353 543.368,564.353C522.177,564.353 504.974,546.815 504.974,525.213C504.974,503.611 522.177,486.073 543.368,486.073Z"/>
    <g transform="matrix(1,0,0,1,644.387,-10.4)">
        <path d="M546.753,417.953C608.19,417.953 658.068,467.145 658.068,527.736C658.068,588.327 608.19,637.519 546.753,637.519C485.317,637.519 435.438,588.327 435.438,527.736C435.438,467.145 485.317,417.953 546.753,417.953ZM543.368,486.073C564.558,486.073 581.761,503.611 581.761,525.213C581.761,546.815 564.558,564.353 543.368,564.353C522.177,564.353 504.974,546.815 504.974,525.213C504.974,503.611 522.177,486.073 543.368,486.073Z"/>
    </g>
</svg>
