<?xml version="1.0" encoding="UTF-8" standalone="no"?>
<!DOCTYPE svg PUBLIC "-//W3C//DTD SVG 1.1//EN" "http://www.w3.org/Graphics/SVG/1.1/DTD/svg11.dtd">
<svg width="100%" height="100%" viewBox="0 0 2048 2048" version="1.1" xmlns="http://www.w3.org/2000/svg" xmlns:xlink="http://www.w3.org/1999/xlink" xml:space="preserve" xmlns:serif="http://www.serif.com/" style="fill-rule:evenodd;clip-rule:evenodd;stroke-linejoin:round;stroke-miterlimit:2;">
    <g transform="matrix(1.25512,-1.33449,0.3151,0.296361,-473.172,2017.24)">
        <rect x="870.947" y="143.364" width="284.773" height="234.756"/>
    </g>
    <g transform="matrix(1.76281,-1.87428,0.3151,0.296361,-740.688,3118.45)">
        <rect x="870.947" y="143.364" width="284.773" height="234.756"/>
    </g>
    <g transform="matrix(1.24401,0,0,1.0104,-256.71,-534.939)">
        <rect x="795.563" y="1440.67" width="494.874" height="111.295"/>
    </g>
    <g transform="matrix(1,0,0,1,114.766,449.34)">
        <path d="M546.753,417.953C608.19,417.953 658.068,467.145 658.068,527.736C658.068,588.327 608.19,637.519 546.753,637.519C485.317,637.519 435.438,588.327 435.438,527.736C435.438,467.145 485.317,417.953 546.753,417.953ZM543.368,486.073C564.558,486.073 581.761,503.611 581.761,525.213C581.761,546.815 564.558,564.353 543.368,564.353C522.177,564.353 504.974,546.815 504.974,525.213C504.974,503.611 522.177,486.073 543.368,486.073Z"/>
    </g>
    <g transform="matrix(1,0,0,1,564.406,-31.5699)">
        <path d="M546.753,417.953C608.19,417.953 658.068,467.145 658.068,527.736C658.068,588.327 608.19,637.519 546.753,637.519C485.317,637.519 435.438,588.327 435.438,527.736C435.438,467.145 485.317,417.953 546.753,417.953ZM543.368,486.073C564.558,486.073 581.761,503.611 581.761,525.213C581.761,546.815 564.558,564.353 543.368,564.353C522.177,564.353 504.974,546.815 504.974,525.213C504.974,503.611 522.177,486.073 543.368,486.073Z"/>
    </g>
    <g transform="matrix(1,0,0,1,-99.9643,-526.668)">
        <path d="M1525.16,1390.15C1586.6,1390.15 1636.48,1439.34 1636.48,1499.93C1636.48,1560.53 1586.6,1609.72 1525.16,1609.72C1463.73,1609.72 1413.85,1560.53 1413.85,1499.93C1413.85,1439.34 1463.73,1390.15 1525.16,1390.15ZM1523.8,1459.61C1544.99,1459.61 1562.19,1477.15 1562.19,1498.75C1562.19,1520.36 1544.99,1537.89 1523.8,1537.89C1502.61,1537.89 1485.4,1520.36 1485.4,1498.75C1485.4,1477.15 1502.61,1459.61 1523.8,1459.61Z"/>
    </g>
</svg>
