<?xml version="1.0" encoding="UTF-8" standalone="no"?>
<!DOCTYPE svg PUBLIC "-//W3C//DTD SVG 1.1//EN" "http://www.w3.org/Graphics/SVG/1.1/DTD/svg11.dtd">
<svg width="100%" height="100%" viewBox="0 0 2048 2048" version="1.1" xmlns="http://www.w3.org/2000/svg" xmlns:xlink="http://www.w3.org/1999/xlink" xml:space="preserve" xmlns:serif="http://www.serif.com/" style="fill-rule:evenodd;clip-rule:evenodd;stroke-linecap:round;stroke-linejoin:round;stroke-miterlimit:1.5;">
    <g transform="matrix(1,0,0,1,148.548,-21.2818)">
        <path d="M546.753,417.953C608.19,417.953 658.068,467.145 658.068,527.736C658.068,588.327 608.19,637.519 546.753,637.519C485.317,637.519 435.438,588.327 435.438,527.736C435.438,467.145 485.317,417.953 546.753,417.953ZM543.368,486.073C564.558,486.073 581.761,503.611 581.761,525.213C581.761,546.815 564.558,564.353 543.368,564.353C522.177,564.353 504.974,546.815 504.974,525.213C504.974,503.611 522.177,486.073 543.368,486.073Z"/>
    </g>
    <g transform="matrix(1,0,0,1,852.131,124.486)">
        <path d="M546.753,417.953C608.19,417.953 658.068,467.145 658.068,527.736C658.068,588.327 608.19,637.519 546.753,637.519C485.317,637.519 435.438,588.327 435.438,527.736C435.438,467.145 485.317,417.953 546.753,417.953ZM543.368,486.073C564.558,486.073 581.761,503.611 581.761,525.213C581.761,546.815 564.558,564.353 543.368,564.353C522.177,564.353 504.974,546.815 504.974,525.213C504.974,503.611 522.177,486.073 543.368,486.073Z"/>
    </g>
    <g transform="matrix(1,0,0,1,480.987,-21.9466)">
        <path d="M553.128,1391.75C614.565,1391.75 664.444,1440.94 664.444,1501.54C664.444,1562.13 614.565,1611.32 553.128,1611.32C491.692,1611.32 441.813,1562.13 441.813,1501.54C441.813,1440.94 491.692,1391.75 553.128,1391.75ZM554.562,1457.72C575.752,1457.72 592.956,1475.26 592.956,1496.86C592.956,1518.46 575.752,1536 554.562,1536C533.372,1536 516.168,1518.46 516.168,1496.86C516.168,1475.26 533.372,1457.72 554.562,1457.72Z"/>
    </g>
    <path d="M778.969,543.708C778.969,543.708 947.187,477.292 1031.56,493.222C1123.95,510.667 1333.31,648.375 1333.31,648.375L1383.84,573.167C1383.84,573.167 1118.18,395.189 1009.46,371.529C916.861,351.379 731.5,431.208 731.5,431.208L778.969,543.708Z" style="stroke:black;stroke-width:1px;"/>
    <g transform="matrix(0.6151,0,0,0.976946,84.7466,-143.872)">
        <rect x="1460.02" y="607.747" width="166.272" height="961.015"/>
    </g>
</svg>
