<?xml version="1.0" encoding="UTF-8" standalone="no"?>
<!DOCTYPE svg PUBLIC "-//W3C//DTD SVG 1.1//EN" "http://www.w3.org/Graphics/SVG/1.1/DTD/svg11.dtd">
<svg width="100%" height="100%" viewBox="0 0 2048 2048" version="1.1" xmlns="http://www.w3.org/2000/svg" xmlns:xlink="http://www.w3.org/1999/xlink" xml:space="preserve" xmlns:serif="http://www.serif.com/" style="fill-rule:evenodd;clip-rule:evenodd;stroke-linecap:round;stroke-linejoin:round;stroke-miterlimit:1.5;">
    <g transform="matrix(1,0,0,1,198.239,-13.8786)">
        <path d="M546.753,417.953C608.19,417.953 658.068,467.145 658.068,527.736C658.068,588.327 608.19,637.519 546.753,637.519C485.317,637.519 435.438,588.327 435.438,527.736C435.438,467.145 485.317,417.953 546.753,417.953ZM543.368,486.073C564.558,486.073 581.761,503.611 581.761,525.213C581.761,546.815 564.558,564.353 543.368,564.353C522.177,564.353 504.974,546.815 504.974,525.213C504.974,503.611 522.177,486.073 543.368,486.073Z"/>
    </g>
    <g transform="matrix(1,0,0,1,872.502,-20.5196)">
        <path d="M546.753,417.953C608.19,417.953 658.068,467.145 658.068,527.736C658.068,588.327 608.19,637.519 546.753,637.519C485.317,637.519 435.438,588.327 435.438,527.736C435.438,467.145 485.317,417.953 546.753,417.953ZM543.368,486.073C564.558,486.073 581.761,503.611 581.761,525.213C581.761,546.815 564.558,564.353 543.368,564.353C522.177,564.353 504.974,546.815 504.974,525.213C504.974,503.611 522.177,486.073 543.368,486.073Z"/>
    </g>
    <g transform="matrix(0.6151,0,0,0.976946,135.032,-10.7718)">
        <rect x="1460.02" y="607.747" width="166.272" height="961.015"/>
    </g>
    <path d="M1490,553.958C1490,553.958 1580.9,684.44 1575.69,957.583C1566.79,1423.51 1323.84,1601.89 1082.31,1601.04C834.21,1600.17 591.17,1381.73 571.219,977.292C559.953,748.925 663.868,565.536 663.868,565.536L754.438,592.708C754.438,592.708 681.259,775.156 688.75,983.625C694.574,1145.72 761.569,1479.76 1082.97,1481.83C1405.8,1483.92 1475.9,1122.7 1478.19,964.268C1480.83,781.612 1400.65,586.152 1400.65,586.152L1490,553.958Z" style="stroke:black;stroke-width:1px;"/>
    <g transform="matrix(1,0,0,1,-436.882,-992.289)">
        <path d="M1525.16,1390.15C1586.6,1390.15 1636.48,1439.34 1636.48,1499.93C1636.48,1560.53 1586.6,1609.72 1525.16,1609.72C1463.73,1609.72 1413.85,1560.53 1413.85,1499.93C1413.85,1439.34 1463.73,1390.15 1525.16,1390.15ZM1523.8,1459.61C1544.99,1459.61 1562.19,1477.15 1562.19,1498.75C1562.19,1520.36 1544.99,1537.89 1523.8,1537.89C1502.61,1537.89 1485.4,1520.36 1485.4,1498.75C1485.4,1477.15 1502.61,1459.61 1523.8,1459.61Z"/>
    </g>
</svg>
