<?xml version="1.0" encoding="UTF-8" standalone="no"?>
<!DOCTYPE svg PUBLIC "-//W3C//DTD SVG 1.1//EN" "http://www.w3.org/Graphics/SVG/1.1/DTD/svg11.dtd">
<svg width="100%" height="100%" viewBox="0 0 2048 2048" version="1.1" xmlns="http://www.w3.org/2000/svg" xmlns:xlink="http://www.w3.org/1999/xlink" xml:space="preserve" xmlns:serif="http://www.serif.com/" style="fill-rule:evenodd;clip-rule:evenodd;stroke-linejoin:round;stroke-miterlimit:2;">
    <g transform="matrix(1,0,0,1,-511.206,63.3489)">
        <path d="M1525.16,1390.15C1586.6,1390.15 1636.48,1439.34 1636.48,1499.93C1636.48,1560.53 1586.6,1609.72 1525.16,1609.72C1463.73,1609.72 1413.85,1560.53 1413.85,1499.93C1413.85,1439.34 1463.73,1390.15 1525.16,1390.15ZM1523.8,1459.61C1544.99,1459.61 1562.19,1477.15 1562.19,1498.75C1562.19,1520.36 1544.99,1537.89 1523.8,1537.89C1502.61,1537.89 1485.4,1520.36 1485.4,1498.75C1485.4,1477.15 1502.61,1459.61 1523.8,1459.61Z"/>
    </g>
</svg>
