<?xml version="1.0" encoding="UTF-8" standalone="no"?>
<!DOCTYPE svg PUBLIC "-//W3C//DTD SVG 1.1//EN" "http://www.w3.org/Graphics/SVG/1.1/DTD/svg11.dtd">
<svg width="100%" height="100%" viewBox="0 0 2048 2048" version="1.1" xmlns="http://www.w3.org/2000/svg" xmlns:xlink="http://www.w3.org/1999/xlink" xml:space="preserve" xmlns:serif="http://www.serif.com/" style="fill-rule:evenodd;clip-rule:evenodd;stroke-linejoin:round;stroke-miterlimit:2;">
    <g transform="matrix(1,0,0,1,513.772,-117.842)">
        <path d="M546.753,417.953C608.19,417.953 658.068,467.145 658.068,527.736C658.068,588.327 608.19,637.519 546.753,637.519C485.317,637.519 435.438,588.327 435.438,527.736C435.438,467.145 485.317,417.953 546.753,417.953ZM543.368,486.073C564.558,486.073 581.761,503.611 581.761,525.213C581.761,546.815 564.558,564.353 543.368,564.353C522.177,564.353 504.974,546.815 504.974,525.213C504.974,503.611 522.177,486.073 543.368,486.073Z"/>
    </g>
    <g transform="matrix(1,0,0,1,-466.345,186.007)">
        <path d="M1525.16,1390.15C1586.6,1390.15 1636.48,1439.34 1636.48,1499.93C1636.48,1560.53 1586.6,1609.72 1525.16,1609.72C1463.73,1609.72 1413.85,1560.53 1413.85,1499.93C1413.85,1439.34 1463.73,1390.15 1525.16,1390.15ZM1523.8,1459.61C1544.99,1459.61 1562.19,1477.15 1562.19,1498.75C1562.19,1520.36 1544.99,1537.89 1523.8,1537.89C1502.61,1537.89 1485.4,1520.36 1485.4,1498.75C1485.4,1477.15 1502.61,1459.61 1523.8,1459.61Z"/>
    </g>
    <path d="M997.817,1726.66C656.771,1696.28 388.841,1403.28 388.841,1046.81C388.841,690.722 656.194,397.968 996.715,367.057L996.715,451.204C704.895,481.194 476.741,734.102 476.741,1041.23C476.741,1348.74 705.47,1601.9 997.817,1631.37L997.817,1726.66ZM1124.3,1630C1410.78,1594.83 1633.17,1344.45 1633.17,1041.23C1633.17,738.323 1411.25,488.156 1125.19,452.566L1125.19,367.945C1461.38,403.185 1723.99,693.892 1723.99,1046.81C1723.99,1400.04 1460.91,1690.95 1124.3,1725.77L1124.3,1630Z"/>
</svg>
