<?xml version="1.0" encoding="UTF-8" standalone="no"?>
<!DOCTYPE svg PUBLIC "-//W3C//DTD SVG 1.1//EN" "http://www.w3.org/Graphics/SVG/1.1/DTD/svg11.dtd">
<svg width="100%" height="100%" viewBox="0 0 2048 2048" version="1.1" xmlns="http://www.w3.org/2000/svg" xmlns:xlink="http://www.w3.org/1999/xlink" xml:space="preserve" xmlns:serif="http://www.serif.com/" style="fill-rule:evenodd;clip-rule:evenodd;stroke-linecap:round;stroke-linejoin:round;stroke-miterlimit:1.5;">
    <g transform="matrix(1,0,0,1,-503.333,-36.4721)">
        <path d="M1525.16,1390.15C1586.6,1390.15 1636.48,1439.34 1636.48,1499.93C1636.48,1560.53 1586.6,1609.72 1525.16,1609.72C1463.73,1609.72 1413.85,1560.53 1413.85,1499.93C1413.85,1439.34 1463.73,1390.15 1525.16,1390.15ZM1523.8,1459.61C1544.99,1459.61 1562.19,1477.15 1562.19,1498.75C1562.19,1520.36 1544.99,1537.89 1523.8,1537.89C1502.61,1537.89 1485.4,1520.36 1485.4,1498.75C1485.4,1477.15 1502.61,1459.61 1523.8,1459.61Z"/>
    </g>
    <path d="M1012.91,350.292C1155.1,348.004 1311.67,480.143 1310.88,768.083C1310.34,964.423 1087.5,1405.96 1087.5,1405.96L998.25,1363.96C998.25,1363.96 1211.8,928.854 1215.44,780.583C1218.41,659.532 1179.21,478.947 1020.06,474.333C854.185,469.524 812.775,595.755 818.625,655.875C824.518,716.443 842.055,828.307 926.586,825.48C998.574,823.073 985.971,761.242 987.528,731.894C989.408,696.467 1020.44,688.07 1037.78,688.625C1055.12,689.18 1090.83,687.128 1091.56,735.226C1093.34,851.043 1026.86,943.45 925.173,947.978C826.767,952.361 704.772,799.719 708.25,659.625C711.565,526.102 840.86,353.059 1012.91,350.292Z" style="stroke:black;stroke-width:1px;"/>
</svg>
